<?xml version="1.0" encoding="UTF-8" standalone="no"?>
<!-- Created with Inkscape (http://www.inkscape.org/) -->

<svg
   width="96"
   height="48"
   viewBox="0 0 25.4 12.7"
   version="1.1"
   id="svg1"
   inkscape:version="1.3.2 (091e20ef0f, 2023-11-25)"
   sodipodi:docname="back-button-click.svg"
   xmlns:inkscape="http://www.inkscape.org/namespaces/inkscape"
   xmlns:sodipodi="http://sodipodi.sourceforge.net/DTD/sodipodi-0.dtd"
   xmlns="http://www.w3.org/2000/svg"
   xmlns:svg="http://www.w3.org/2000/svg">
  <sodipodi:namedview
     id="namedview1"
     pagecolor="#505050"
     bordercolor="#ffffff"
     borderopacity="1"
     inkscape:showpageshadow="0"
     inkscape:pageopacity="0"
     inkscape:pagecheckerboard="1"
     inkscape:deskcolor="#d1d1d1"
     inkscape:document-units="mm"
     inkscape:zoom="4.1020923"
     inkscape:cx="36.444816"
     inkscape:cy="11.945124"
     inkscape:window-width="1920"
     inkscape:window-height="1012"
     inkscape:window-x="0"
     inkscape:window-y="0"
     inkscape:window-maximized="1"
     inkscape:current-layer="layer1" />
  <defs
     id="defs1" />
  <g
     inkscape:label="Layer 1"
     inkscape:groupmode="layer"
     id="layer1">
    <rect
       style="fill:#660080;stroke:#440055;stroke-width:0.604763;stroke-linecap:square;stroke-linejoin:round"
       id="rect1"
       width="24.685547"
       height="12.089726"
       x="0.41207096"
       y="0.30789199"
       ry="9.0784759e-08" />
    <path
       style="font-size:8.88504px;font-family:'Lapsus Pro';-inkscape-font-specification:'Lapsus Pro';opacity:0.768317;fill:#660080;stroke-width:0.209883;stroke-linecap:square;stroke-linejoin:round"
       d="M 5.8586198,3.5648642 Q 7.1427858,3.95532 7.0603562,5.0746269 6.938881,5.5778811 6.3879044,6.0377513 l 0.3557487,0.08243 Q 8.092895,6.5974048 8.179663,7.6472972 8.223047,8.341441 7.8846519,8.8924176 7.003957,9.9032645 3.6590517,9.6906829 L 2.8954936,4.0377496 Q 4.5093778,3.291545 5.8586198,3.5648642 Z m -0.8937101,1.3275499 0.060738,0.598699 Q 5.6590534,5.3219156 5.7154526,4.9227829 5.698099,4.8099845 5.5636087,4.7666006 5.3119816,4.7102014 4.9649097,4.8924141 Z M 5.2338904,8.2199658 Q 6.3575356,8.1201827 6.383566,7.7340652 6.4312884,7.5214837 6.1839997,7.4607461 5.7154526,7.3522861 5.1991832,7.5344989 Z m 4.5249496,-4.7679 h 1.765728 l 1.813451,5.1800479 -1.800436,1.0498925 -0.247288,-0.859003 H 9.8933304 L 9.5549353,9.647299 7.8629598,8.8056496 Z m 0.451193,4.2256002 0.97614,-0.034707 -0.329718,-1.1019532 h -0.268981 z m 5.605211,-4.2212618 q 1.466379,-0.2039047 2.242953,1.0802612 l -1.284166,1.0629077 q -0.40781,-0.3861175 -0.815619,-0.3253799 -1.075923,0.2125815 -1.0846,1.4360099 0.199566,0.9891549 0.971801,0.8937101 0.347072,-0.052061 0.802604,-0.555315 l 1.483732,0.6377446 Q 17.576634,9.4477326 15.659062,9.6863445 14.275113,9.8295117 13.437802,8.232981 13.181837,7.6863428 13.142791,7.1744118 12.821749,4.9097677 15.073378,3.6733241 15.316329,3.5258186 15.815244,3.4564042 Z m 5.514105,-0.013015 0.850326,1.1930596 -1.223428,1.4577019 2.00434,1.9739714 -1.561824,1.4273331 -1.46204,-1.8351426 -0.104121,2.0477241 -1.86985,-0.6464213 0.407809,-5.2754927 q 0.117137,0 1.462041,-0.2733191 l 0.104121,1.5618235 z"
       id="text2"
       aria-label="BACK" />
    <path
       style="font-size:8.88504px;font-family:'Lapsus Pro';-inkscape-font-specification:'Lapsus Pro';fill:#440055;stroke-width:0.209883;stroke-linecap:square;stroke-linejoin:round"
       d="M 5.6305796,3.3368216 Q 6.9147455,3.7272774 6.832316,4.8465843 6.7108408,5.3498385 6.1598642,5.8097087 l 0.3557487,0.08243 Q 7.8648548,6.3693622 7.9516228,7.4192546 7.9950068,8.1133984 7.6566117,8.664375 6.7759168,9.6752219 3.4310115,9.4626403 L 2.6674533,3.809707 Q 4.2813376,3.0635024 5.6305796,3.3368216 Z M 4.7368695,4.6643715 4.797607,5.2630705 Q 5.4310132,5.093873 5.4874124,4.6947403 5.4700588,4.5819419 5.3355685,4.538558 5.0839413,4.4821588 4.7368695,4.6643715 Z M 5.0058502,7.9919232 Q 6.1294954,7.8921401 6.1555258,7.5060226 6.2032482,7.2934411 5.9559595,7.2327035 5.4874124,7.1242435 4.971143,7.3064563 Z m 4.5249496,-4.7679 H 11.296528 L 13.109979,8.4040711 11.309543,9.4539635 11.062254,8.5949606 H 9.6652901 L 9.3268951,9.4192564 7.6349196,8.577607 Z M 9.9819932,7.4496234 10.958133,7.4149162 10.628415,6.312963 H 10.359434 Z M 15.587204,3.2283616 q 1.466379,-0.2039047 2.242952,1.0802612 L 16.54599,5.3715305 Q 16.138181,4.985413 15.730371,5.0461506 q -1.075922,0.2125815 -1.084599,1.4360099 0.199566,0.9891549 0.971801,0.8937101 0.347072,-0.052061 0.802604,-0.555315 l 1.483732,0.6377446 Q 17.348594,9.21969 15.431022,9.4583019 14.047073,9.6014691 13.209762,8.0049384 12.953796,7.4583002 12.914751,6.9463692 12.593709,4.6817251 14.845338,3.4452815 15.088288,3.297776 15.587204,3.2283616 Z m 5.514105,-0.013015 0.850326,1.1930596 -1.223428,1.4577019 2.00434,1.9739714 -1.561824,1.4273331 -1.46204,-1.8351426 -0.104122,2.0477241 -1.869849,-0.6464213 0.407809,-5.2754927 q 0.117137,0 1.46204,-0.2733191 l 0.104122,1.5618235 z"
       id="text1"
       aria-label="BACK" />
  </g>
</svg>
