<?xml version="1.0" encoding="UTF-8" standalone="no"?>
<!-- Created with Inkscape (http://www.inkscape.org/) -->

<svg
   width="96"
   height="48"
   viewBox="0 0 25.4 12.7"
   version="1.1"
   id="svg1"
   inkscape:version="1.3.2 (091e20ef0f, 2023-11-25)"
   sodipodi:docname="settings-button-clicked.svg"
   xmlns:inkscape="http://www.inkscape.org/namespaces/inkscape"
   xmlns:sodipodi="http://sodipodi.sourceforge.net/DTD/sodipodi-0.dtd"
   xmlns="http://www.w3.org/2000/svg"
   xmlns:svg="http://www.w3.org/2000/svg">
  <sodipodi:namedview
     id="namedview1"
     pagecolor="#505050"
     bordercolor="#ffffff"
     borderopacity="1"
     inkscape:showpageshadow="0"
     inkscape:pageopacity="0"
     inkscape:pagecheckerboard="1"
     inkscape:deskcolor="#d1d1d1"
     inkscape:document-units="mm"
     inkscape:zoom="5.8012346"
     inkscape:cx="50.50649"
     inkscape:cy="11.721643"
     inkscape:window-width="2560"
     inkscape:window-height="1012"
     inkscape:window-x="0"
     inkscape:window-y="0"
     inkscape:window-maximized="1"
     inkscape:current-layer="layer1" />
  <defs
     id="defs1" />
  <g
     inkscape:label="Layer 1"
     inkscape:groupmode="layer"
     id="layer1">
    <rect
       style="fill:#0044aa;stroke:#003380;stroke-width:0.604763;stroke-linecap:square;stroke-linejoin:round"
       id="rect1"
       width="24.685547"
       height="12.089726"
       x="0.41207096"
       y="0.30789199"
       ry="9.0784759e-08" />
    <text
       xml:space="preserve"
       style="font-style:normal;font-variant:normal;font-weight:normal;font-stretch:normal;font-size:4.99793px;font-family:'Lapsus Pro';-inkscape-font-specification:'Lapsus Pro, Normal';font-variant-ligatures:normal;font-variant-caps:normal;font-variant-numeric:normal;font-variant-east-asian:normal;fill:#0044aa;stroke:#a0892c;stroke-width:0.624741;stroke-linecap:square;stroke-linejoin:round"
       x="2.3918471"
       y="8.1788425"
       id="text2"><tspan
         sodipodi:role="line"
         id="tspan2"
         style="font-style:normal;font-variant:normal;font-weight:normal;font-stretch:normal;font-size:4.99793px;font-family:'Lapsus Pro';-inkscape-font-specification:'Lapsus Pro, Normal';font-variant-ligatures:normal;font-variant-caps:normal;font-variant-numeric:normal;font-variant-east-asian:normal;fill:#0044aa;stroke:none;stroke-width:0.624741"
         x="2.3918471"
         y="8.1788425">SETTINGS</tspan></text>
    <path
       style="font-size:4.99793px;font-family:'Lapsus Pro';-inkscape-font-specification:'Lapsus Pro, Normal';fill:#003380;stroke-width:0.624741;stroke-linecap:square;stroke-linejoin:round"
       d="M 2.9261109,4.5863992 Q 3.8510208,4.3448 4.7612884,4.986624 L 4.3366596,5.7626698 Q 3.1433061,5.2379848 3.1677101,5.6186865 3.240922,5.7870738 3.6655508,5.8968916 4.9247949,6.4166958 4.8930697,7.1341721 4.9052717,7.5929665 4.3317788,7.8882543 4.1023816,8.0078337 3.6045409,8.0419992 3.0286076,8.059082 2.2964889,7.627132 L 2.6332635,6.880371 Q 3.7485242,7.3318441 3.7436434,7.0097119 3.7021567,6.8535266 2.7870084,6.4874673 2.1964327,6.1628947 2.2061943,5.5747594 2.1549459,4.9719817 2.9261109,4.5863992 Z M 7.5823856,4.5180681 7.467687,5.5113091 5.9912477,5.6479712 6.0376152,5.967663 7.0625814,5.9359379 6.9844887,6.6070467 6.1035059,6.6778181 6.1401118,7.0585198 7.6043492,6.9633444 7.455485,7.9321814 q -0.00732,0.046368 -2.3354585,0.090295 L 4.7954539,4.7255017 Z m 2.4672394,-0.012202 q 0.109818,0.5808142 0.175709,1.0371681 -0.4612348,-0.019523 -0.8419365,-0.019523 0.041487,1.4398333 0,2.4892034 H 8.4804511 Q 8.4023585,7.3830925 8.4218816,5.8968916 l -0.00488,-0.3660594 q -0.4295096,0 -0.8956251,0.036606 0.065891,-0.6442644 0.1561853,-1.0420489 0.9981218,-0.019523 2.372064,-0.019523 z m 2.611224,0 q 0.109817,0.5808142 0.175708,1.0371681 -0.461235,-0.019523 -0.841936,-0.019523 0.04149,1.4398333 0,2.4892034 h -0.902947 q -0.07809,-0.629622 -0.05857,-2.1158229 l -0.0049,-0.3660594 q -0.42951,0 -0.895625,0.036606 0.06589,-0.6442644 0.156185,-1.0420489 0.998122,-0.019523 2.372065,-0.019523 z m 1.966958,0.012202 0.08541,0.9859198 q -0.261122,-0.019523 -0.507602,-0.019523 l 0.07565,1.6082207 0.507602,0.056129 -0.100056,0.888304 H 12.79263 L 12.7365,7.1732184 13.219699,7.0926854 V 5.4625012 l -0.441712,0.024404 0.11958,-0.9078271 z m 3.08466,0 q -0.334334,3.3457823 -0.395344,3.504408 H 16.667978 L 15.87729,6.6363314 15.735747,8.0224761 h -0.878542 q -0.0098,-1.3104924 0.1269,-3.3701862 h 0.851698 l 0.558851,1.1079395 0.324572,-1.166509 z m 1.571615,-0.021964 q 0.790688,0 1.139665,0.5783738 l -0.73944,0.6198604 q -0.222076,-0.1391025 -0.480758,-0.1391025 -0.622301,0.012202 -0.710155,0.7077147 0.02196,0.5905757 0.568612,0.6149797 0.190351,-0.024404 0.302609,-0.1635065 l -0.380701,-0.080533 0.06345,-0.4392712 1.176271,-0.1610661 q 0.05857,0.314811 0.05857,0.5808142 0,1.1030587 -1.137224,1.3983466 -0.12202,0.024404 -0.402665,0.019523 -0.683311,0 -1.039609,-0.9981218 -0.07809,-0.24648 -0.07809,-0.6393836 0.01952,-1.2494826 1.017645,-1.7790484 0.42707,-0.1195794 0.641824,-0.1195794 z m 1.78393,0.090295 Q 21.992922,4.3448 22.903189,4.986624 l -0.424628,0.7760458 q -1.193354,-0.524685 -1.16895,-0.1439833 0.07321,0.1683873 0.497841,0.2782051 1.259244,0.5198042 1.227519,1.2372805 0.0122,0.4587944 -0.561291,0.7540822 Q 22.244283,8.0078337 21.746442,8.0419992 21.170509,8.059082 20.43839,7.627132 l 0.336774,-0.746761 q 1.115261,0.4514731 1.11038,0.1293409 Q 21.844058,6.8535266 20.928909,6.4874673 20.338334,6.1628947 20.348095,5.5747594 20.296847,4.9719817 21.068012,4.5863992 Z"
       id="text1"
       aria-label="SETTINGS" />
  </g>
</svg>
